<svg width="626" height="144" fill="none" xmlns="http://www.w3.org/2000/svg"><path fill="#FC6A6A" d="M312 130h314v14H312z"/><path d="M39.104 107.44c-6.336 0-11.952-1.584-16.848-4.752-4.8-3.264-8.688-7.344-11.664-12.24v46.224H.8V30.976h8.784V45.52c3.072-4.704 7.056-8.496 11.952-11.376 4.896-2.976 10.224-4.464 15.984-4.464 5.184 0 9.936 1.104 14.256 3.312a35.225 35.225 0 0 1 11.232 8.64c3.168 3.552 5.616 7.68 7.344 12.384 1.824 4.704 2.736 9.552 2.736 14.544 0 5.28-.816 10.272-2.448 14.976-1.632 4.704-3.984 8.832-7.056 12.384-2.976 3.552-6.576 6.384-10.8 8.496-4.128 2.016-8.688 3.024-13.68 3.024zm-2.736-8.64c4.032 0 7.68-.864 10.944-2.592 3.36-1.728 6.192-3.984 8.496-6.768a31.001 31.001 0 0 0 5.472-9.648 34.469 34.469 0 0 0 1.872-11.232c0-4.032-.72-7.872-2.16-11.52-1.44-3.648-3.408-6.864-5.904-9.648s-5.472-4.992-8.928-6.624c-3.36-1.632-7.008-2.448-10.944-2.448-2.496 0-5.136.528-7.92 1.584a30.675 30.675 0 0 0-7.632 4.032 27.125 27.125 0 0 0-6.048 5.904c-1.632 2.208-2.64 4.56-3.024 7.056v23.04a36.189 36.189 0 0 0 4.32 7.488 36.046 36.046 0 0 0 6.048 6.048 31.724 31.724 0 0 0 7.344 3.888c2.592.96 5.28 1.44 8.064 1.44zm85.707 8.64c-5.472 0-10.512-1.008-15.12-3.024-4.512-2.112-8.448-4.944-11.808-8.496-3.36-3.648-6-7.824-7.92-12.528-1.824-4.704-2.736-9.744-2.736-15.12 0-5.28.912-10.224 2.736-14.832 1.92-4.704 4.512-8.784 7.776-12.24 3.36-3.552 7.344-6.336 11.952-8.352 4.608-2.112 9.6-3.168 14.976-3.168 5.472 0 10.464 1.056 14.976 3.168 4.608 2.016 8.544 4.8 11.808 8.352 3.264 3.552 5.808 7.632 7.632 12.24 1.824 4.608 2.736 9.504 2.736 14.688v2.304c0 .768-.048 1.296-.144 1.584H94.715c.288 4.032 1.2 7.776 2.736 11.232 1.632 3.36 3.696 6.288 6.192 8.784a28.763 28.763 0 0 0 8.496 5.904c3.264 1.344 6.72 2.016 10.368 2.016 2.4 0 4.8-.336 7.2-1.008 2.4-.672 4.608-1.584 6.624-2.736a25.816 25.816 0 0 0 5.472-4.176c1.632-1.728 2.88-3.6 3.744-5.616l8.496 2.304c-1.152 2.784-2.784 5.328-4.896 7.632-2.112 2.208-4.56 4.176-7.344 5.904-2.784 1.632-5.856 2.88-9.216 3.744-3.36.96-6.864 1.44-10.512 1.44zm27.648-42.912c-.288-4.032-1.248-7.68-2.88-10.944-1.536-3.36-3.552-6.24-6.048-8.64-2.4-2.4-5.232-4.272-8.496-5.616-3.168-1.344-6.576-2.016-10.224-2.016-3.648 0-7.104.672-10.368 2.016-3.264 1.344-6.144 3.216-8.64 5.616-2.4 2.4-4.368 5.28-5.904 8.64-1.44 3.36-2.304 7.008-2.592 10.944h55.152zm56.868 42.912c-5.472 0-10.512-1.008-15.12-3.024-4.512-2.112-8.448-4.944-11.808-8.496-3.36-3.648-6-7.824-7.92-12.528-1.824-4.704-2.736-9.744-2.736-15.12 0-5.28.912-10.224 2.736-14.832 1.92-4.704 4.512-8.784 7.776-12.24 3.36-3.552 7.344-6.336 11.952-8.352 4.608-2.112 9.6-3.168 14.976-3.168 5.472 0 10.464 1.056 14.976 3.168 4.608 2.016 8.544 4.8 11.808 8.352 3.264 3.552 5.808 7.632 7.632 12.24 1.824 4.608 2.736 9.504 2.736 14.688v2.304c0 .768-.048 1.296-.144 1.584h-64.224c.288 4.032 1.2 7.776 2.736 11.232 1.632 3.36 3.696 6.288 6.192 8.784a28.763 28.763 0 0 0 8.496 5.904c3.264 1.344 6.72 2.016 10.368 2.016 2.4 0 4.8-.336 7.2-1.008 2.4-.672 4.608-1.584 6.624-2.736a25.816 25.816 0 0 0 5.472-4.176c1.632-1.728 2.88-3.6 3.744-5.616l8.496 2.304c-1.152 2.784-2.784 5.328-4.896 7.632-2.112 2.208-4.56 4.176-7.344 5.904-2.784 1.632-5.856 2.88-9.216 3.744-3.36.96-6.864 1.44-10.512 1.44zm27.648-42.912c-.288-4.032-1.248-7.68-2.88-10.944-1.536-3.36-3.552-6.24-6.048-8.64-2.4-2.4-5.232-4.272-8.496-5.616-3.168-1.344-6.576-2.016-10.224-2.016-3.648 0-7.104.672-10.368 2.016-3.264 1.344-6.144 3.216-8.64 5.616-2.4 2.4-4.368 5.28-5.904 8.64-1.44 3.36-2.304 7.008-2.592 10.944h55.152zm61.907-24.912c-6.624.192-12.384 2.016-17.28 5.472-4.896 3.456-8.352 8.208-10.368 14.256V106h-9.792V30.976h9.216v18c2.784-5.76 6.528-10.272 11.232-13.536 4.704-3.264 9.744-4.896 15.12-4.896.768 0 1.392.048 1.872.144v8.928zm54.862 67.824c-5.952 0-11.424-1.488-16.416-4.464-4.896-2.976-8.736-6.816-11.52-11.52V106h-8.784V.88h9.792v45.792c3.36-5.088 7.392-9.168 12.096-12.24 4.704-3.168 10.176-4.752 16.416-4.752 5.28 0 9.984 1.104 14.112 3.312 4.224 2.208 7.776 5.184 10.656 8.928 2.976 3.648 5.232 7.824 6.768 12.528a42.395 42.395 0 0 1 2.448 14.256c0 5.28-.912 10.272-2.736 14.976-1.824 4.704-4.32 8.832-7.488 12.384-3.168 3.456-6.96 6.24-11.376 8.352-4.32 2.016-8.976 3.024-13.968 3.024zm-2.304-8.64c4.128 0 7.872-.816 11.232-2.448 3.456-1.728 6.384-3.984 8.784-6.768a31.809 31.809 0 0 0 5.76-9.648c1.44-3.648 2.16-7.392 2.16-11.232 0-3.936-.672-7.728-2.016-11.376-1.248-3.648-3.072-6.864-5.472-9.648-2.304-2.88-5.136-5.136-8.496-6.768-3.264-1.728-6.864-2.592-10.8-2.592-2.976 0-5.76.528-8.352 1.584a26.625 26.625 0 0 0-7.2 4.032 32.065 32.065 0 0 0-5.904 6.048 35.68 35.68 0 0 0-4.32 7.056v23.328c.384 2.592 1.392 5.04 3.024 7.344a28.706 28.706 0 0 0 6.048 5.76 33.658 33.658 0 0 0 7.632 3.888c2.784.96 5.424 1.44 7.92 1.44zm73.323 8.64c-3.552 0-6.864-.576-9.936-1.728-2.976-1.248-5.616-2.928-7.92-5.04a23.206 23.206 0 0 1-5.184-7.344c-1.248-2.88-1.872-5.952-1.872-9.216 0-3.264.768-6.288 2.304-9.072 1.536-2.784 3.696-5.184 6.48-7.2 2.784-2.016 6.096-3.552 9.936-4.608 3.84-1.152 8.064-1.728 12.672-1.728 3.84 0 7.728.336 11.664 1.008 3.936.672 7.44 1.632 10.512 2.88v-6.768c0-6.624-1.872-11.856-5.616-15.696-3.744-3.936-8.928-5.904-15.552-5.904-3.84 0-7.776.768-11.808 2.304-4.032 1.536-8.112 3.744-12.24 6.624l-3.456-6.48c9.696-6.528 19.104-9.792 28.224-9.792 9.408 0 16.8 2.64 22.176 7.92 5.376 5.28 8.064 12.576 8.064 21.888v33.84c0 2.688 1.2 4.032 3.6 4.032V106c-1.632.288-2.88.432-3.744.432-2.496 0-4.464-.624-5.904-1.872-1.344-1.248-2.064-2.976-2.16-5.184l-.288-5.904c-3.456 4.512-7.824 7.968-13.104 10.368-5.184 2.4-10.8 3.6-16.848 3.6zm2.304-7.488c5.088 0 9.744-.96 13.968-2.88 4.32-1.92 7.584-4.464 9.792-7.632.864-.864 1.488-1.776 1.872-2.736.48-1.056.72-2.016.72-2.88v-12.24a59.573 59.573 0 0 0-10.224-2.88 55.704 55.704 0 0 0-10.656-1.008c-6.912 0-12.528 1.44-16.848 4.32-4.32 2.88-6.48 6.672-6.48 11.376 0 2.304.432 4.464 1.296 6.48a19.055 19.055 0 0 0 3.744 5.328c1.632 1.44 3.552 2.592 5.76 3.456 2.208.864 4.56 1.296 7.056 1.296zm82.213 7.488c-5.856 0-11.568-.96-17.136-2.88s-10.368-4.704-14.4-8.352l4.464-6.624c4.224 3.456 8.496 6.048 12.816 7.776 4.416 1.728 9.12 2.592 14.112 2.592 6.048 0 10.848-1.2 14.4-3.6 3.648-2.496 5.472-6 5.472-10.512 0-2.112-.48-3.84-1.44-5.184-.96-1.44-2.4-2.688-4.32-3.744-1.824-1.056-4.176-1.968-7.056-2.736-2.784-.864-6.048-1.728-9.792-2.592-4.32-1.056-8.064-2.112-11.232-3.168-3.168-1.056-5.808-2.256-7.92-3.6-2.016-1.344-3.552-2.976-4.608-4.896-.96-2.016-1.44-4.512-1.44-7.488 0-3.744.72-7.056 2.16-9.936 1.536-2.88 3.552-5.232 6.048-7.056 2.592-1.92 5.568-3.36 8.928-4.32 3.456-.96 7.104-1.44 10.944-1.44 5.76 0 10.992.96 15.696 2.88 4.704 1.824 8.496 4.272 11.376 7.344l-4.752 5.76c-2.784-2.88-6.192-5.04-10.224-6.48-3.936-1.44-8.064-2.16-12.384-2.16-2.592 0-4.992.288-7.2.864-2.208.48-4.176 1.296-5.904 2.448-1.632 1.152-2.928 2.64-3.888 4.464-.96 1.728-1.44 3.792-1.44 6.192 0 2.016.336 3.648 1.008 4.896.672 1.248 1.776 2.352 3.312 3.312 1.536.864 3.456 1.68 5.76 2.448 2.4.672 5.28 1.392 8.64 2.16 4.8 1.152 9.024 2.304 12.672 3.456 3.648 1.152 6.672 2.496 9.072 4.032 2.496 1.536 4.368 3.408 5.616 5.616 1.248 2.208 1.872 4.896 1.872 8.064 0 6.912-2.64 12.384-7.92 16.416-5.28 4.032-12.384 6.048-21.312 6.048zm77.66 0c-5.472 0-10.512-1.008-15.12-3.024-4.512-2.112-8.448-4.944-11.808-8.496-3.36-3.648-6-7.824-7.92-12.528-1.824-4.704-2.736-9.744-2.736-15.12 0-5.28.912-10.224 2.736-14.832 1.92-4.704 4.512-8.784 7.776-12.24 3.36-3.552 7.344-6.336 11.952-8.352 4.608-2.112 9.6-3.168 14.976-3.168 5.472 0 10.464 1.056 14.976 3.168 4.608 2.016 8.544 4.8 11.808 8.352 3.264 3.552 5.808 7.632 7.632 12.24 1.824 4.608 2.736 9.504 2.736 14.688v2.304c0 .768-.048 1.296-.144 1.584h-64.224c.288 4.032 1.2 7.776 2.736 11.232 1.632 3.36 3.696 6.288 6.192 8.784a28.763 28.763 0 0 0 8.496 5.904c3.264 1.344 6.72 2.016 10.368 2.016 2.4 0 4.8-.336 7.2-1.008 2.4-.672 4.608-1.584 6.624-2.736a25.816 25.816 0 0 0 5.472-4.176c1.632-1.728 2.88-3.6 3.744-5.616l8.496 2.304c-1.152 2.784-2.784 5.328-4.896 7.632-2.112 2.208-4.56 4.176-7.344 5.904-2.784 1.632-5.856 2.88-9.216 3.744-3.36.96-6.864 1.44-10.512 1.44zm27.648-42.912c-.288-4.032-1.248-7.68-2.88-10.944-1.536-3.36-3.552-6.24-6.048-8.64-2.4-2.4-5.232-4.272-8.496-5.616-3.168-1.344-6.576-2.016-10.224-2.016-3.648 0-7.104.672-10.368 2.016-3.264 1.344-6.144 3.216-8.64 5.616-2.4 2.4-4.368 5.28-5.904 8.64-1.44 3.36-2.304 7.008-2.592 10.944h55.152z" fill="#000"/></svg>